<?xml version="1.0" standalone="no"?>
<!DOCTYPE svg PUBLIC "-//W3C//DTD SVG 20010904//EN"
 "http://www.w3.org/TR/2001/REC-SVG-20010904/DTD/svg10.dtd">
<svg version="1.0" xmlns="http://www.w3.org/2000/svg"
 width="16.000000pt" height="16.000000pt" viewBox="0 0 16.000000 16.000000"
 preserveAspectRatio="xMidYMid meet">
<metadata>
Created by potrace 1.11, written by Peter Selinger 2001-2013
</metadata>
<g transform="translate(0.000000,16.000000) scale(0.003125,-0.003125)"
fill="#000000" stroke="none">
<path d="M2380 5064 c-19 -2 -78 -9 -130 -15 -445 -51 -911 -249 -1280 -546
-501 -402 -840 -1027 -910 -1681 -18 -161 -8 -512 19 -667 138 -810 644 -1488
1376 -1845 171 -83 290 -128 466 -175 223 -59 380 -78 634 -79 228 0 361 13
546 54 1053 234 1843 1115 1959 2187 19 169 8 524 -20 682 -192 1085 -1039
1905 -2135 2067 -96 14 -453 27 -525 18z m531 -144 c948 -139 1728 -840 1964
-1765 59 -229 70 -322 70 -595 0 -273 -11 -363 -70 -596 -145 -568 -498 -1061
-1000 -1395 -294 -197 -665 -332 -1040 -380 -115 -14 -433 -14 -550 1 -431 54
-827 213 -1173 472 -124 93 -367 335 -458 458 -271 364 -423 750 -475 1210
-15 132 -6 447 16 590 121 772 612 1438 1310 1780 442 216 923 291 1406 220z"/>
<path d="M2424 4594 c-7 -27 -54 -54 -95 -54 -12 0 -19 -5 -17 -12 3 -8 26
-14 56 -16 l52 -3 0 -150 c0 -142 1 -149 20 -149 19 0 20 7 20 205 0 174 -2
205 -15 205 -8 0 -18 -12 -21 -26z"/>
<path d="M2623 4610 c-47 -19 -89 -137 -46 -128 10 2 20 17 24 38 10 45 41 70
91 70 47 0 88 -35 88 -75 0 -47 -28 -82 -114 -144 -54 -39 -89 -73 -100 -95
-31 -66 -31 -66 119 -66 113 0 135 2 135 15 0 12 -19 15 -115 15 -63 0 -115 2
-115 5 0 20 44 64 106 105 109 75 138 123 114 195 -17 52 -53 75 -114 74 -28
0 -61 -4 -73 -9z"/>
<path d="M1490 4327 c-12 -26 -23 -34 -57 -41 -62 -13 -57 -36 7 -36 l50 0 0
-150 c0 -143 1 -150 20 -150 19 0 20 7 20 205 0 157 -3 205 -12 205 -7 0 -20
-15 -28 -33z"/>
<path d="M1759 4328 c-12 -28 -21 -34 -62 -42 -61 -12 -55 -30 11 -34 l52 -3
0 -150 c0 -142 1 -149 20 -149 19 0 20 7 20 205 0 163 -3 205 -13 205 -7 0
-20 -15 -28 -32z"/>
<path d="M3483 4321 c-8 -24 -21 -33 -59 -44 -27 -8 -49 -18 -49 -23 0 -5 24
-10 53 -12 l52 -3 0 -150 c0 -142 1 -149 20 -149 19 0 20 7 20 205 0 160 -3
205 -13 205 -7 0 -18 -13 -24 -29z"/>
<path d="M810 3665 c0 -27 -47 -65 -80 -65 -20 0 -30 -5 -30 -15 0 -11 12 -15
50 -15 l49 0 3 -152 c3 -136 5 -153 21 -156 16 -3 17 12 17 207 0 181 -2 211
-15 211 -8 0 -15 -7 -15 -15z"/>
<path d="M1003 3661 c-55 -35 -68 -72 -68 -196 0 -96 3 -114 22 -146 28 -44
59 -59 122 -59 92 0 132 64 132 211 0 95 -13 140 -54 178 -37 33 -111 39 -154
12z m124 -33 c43 -35 62 -140 43 -232 -15 -75 -44 -106 -98 -106 -71 0 -102
56 -102 183 0 92 19 143 60 165 27 14 75 9 97 -10z"/>
<path d="M4089 3655 c-49 -26 -79 -125 -39 -125 14 0 20 7 20 24 0 14 12 38
26 55 52 63 154 28 154 -53 0 -43 -22 -70 -114 -139 -75 -56 -102 -87 -112
-129 l-6 -28 136 0 c114 0 136 2 136 15 0 12 -19 15 -110 15 -89 0 -110 3
-110 14 0 15 48 59 130 119 96 71 118 151 56 213 -30 30 -40 34 -87 34 -30 -1
-66 -7 -80 -15z"/>
<path d="M1640 2985 c-16 -20 -6 -42 27 -61 16 -9 192 -91 393 -183 223 -102
366 -173 368 -182 2 -12 -162 -86 -655 -298 -362 -156 -666 -291 -676 -299
-26 -23 -18 -56 15 -60 18 -2 245 91 689 282 l662 285 25 -19 c13 -11 31 -20
38 -20 12 0 14 -105 16 -617 3 -579 4 -618 21 -621 16 -3 17 31 17 615 l0 619
36 13 c98 35 98 195 -1 237 -46 19 -70 18 -119 -6 l-41 -21 -383 176 c-211 96
-391 175 -401 175 -10 0 -24 -7 -31 -15z"/>
<path d="M656 2760 c-148 -46 -115 -270 41 -270 33 0 50 7 78 31 l36 32 -7
-44 c-10 -68 -36 -112 -75 -127 -45 -17 -84 -3 -107 38 -9 16 -25 30 -34 30
-22 0 -22 -2 -4 -44 26 -62 126 -84 190 -42 45 29 69 99 69 197 -1 99 -25 168
-67 187 -37 17 -88 22 -120 12z m115 -59 c43 -43 41 -101 -5 -147 -70 -70
-166 -24 -166 81 0 53 44 95 100 95 33 0 48 -6 71 -29z"/>
<path d="M4337 2750 c-51 -40 -74 -110 -37 -110 14 0 20 7 20 23 1 68 105 103
155 52 47 -46 21 -112 -50 -124 -43 -7 -61 -31 -22 -31 38 0 86 -20 97 -40 52
-98 -82 -190 -161 -111 -17 17 -29 40 -29 55 0 19 -5 26 -20 26 -34 0 -26 -54
13 -97 29 -31 41 -37 89 -41 98 -8 158 39 158 123 0 46 -13 71 -48 89 -24 13
-25 15 -9 21 28 11 50 63 43 100 -10 51 -47 78 -114 83 -47 3 -62 0 -85 -18z"/>
<path d="M900 1833 c-40 -13 -63 -30 -77 -56 -19 -38 -10 -91 21 -114 l23 -17
-34 -32 c-28 -27 -33 -38 -33 -79 0 -40 5 -52 33 -80 56 -56 164 -56 218 1 19
21 24 36 24 81 0 50 -3 58 -33 82 l-32 27 25 24 c32 30 34 86 5 123 -28 35
-97 55 -140 40z m102 -50 c24 -22 24 -77 -2 -103 -13 -13 -33 -20 -60 -20 -74
0 -117 73 -70 120 26 26 105 28 132 3z m-30 -163 c69 -19 92 -97 43 -145 -34
-35 -121 -36 -153 -2 -36 38 -38 78 -8 115 15 17 37 33 49 35 12 2 24 5 27 6
3 0 22 -4 42 -9z"/>
<path d="M4126 1683 c-53 -75 -96 -144 -96 -155 0 -16 9 -18 95 -18 l95 0 0
-50 c0 -37 4 -50 14 -50 11 0 16 14 18 48 3 45 4 47 36 50 19 2 32 9 32 17 0
8 -13 15 -32 17 l-33 3 -3 138 c-2 110 -5 137 -17 137 -8 0 -57 -61 -109 -137z
m94 -33 l0 -110 -76 0 c-42 0 -74 4 -72 8 4 11 142 212 146 212 1 0 2 -49 2
-110z"/>
<path d="M3396 1143 c-6 -22 -36 -182 -36 -194 0 -16 23 -10 46 12 13 12 41
23 66 26 84 10 138 -69 104 -151 -18 -43 -71 -71 -116 -61 -32 7 -66 41 -72
70 -2 11 -11 21 -21 23 -30 6 -21 -44 16 -83 24 -27 43 -37 78 -41 92 -12 159
46 159 139 0 86 -50 137 -132 137 -24 0 -54 -7 -67 -17 -23 -16 -24 -16 -18 8
3 13 9 43 13 66 l6 42 92 3 c73 2 91 6 91 18 0 12 -19 16 -102 18 -90 2 -102
1 -107 -15z"/>
<path d="M1490 1135 c0 -12 19 -15 110 -15 61 0 110 -3 110 -7 0 -4 -11 -18
-24 -32 -87 -92 -175 -341 -121 -341 17 0 18 1 34 84 13 74 60 175 112 242 63
82 61 84 -91 84 -109 0 -130 -2 -130 -15z"/>
<path d="M2503 915 c-67 -29 -103 -138 -85 -262 12 -87 38 -128 92 -144 82
-25 171 25 186 105 10 55 -20 123 -66 148 -49 27 -112 19 -151 -18 -24 -23
-29 -24 -29 -10 0 39 24 107 46 131 32 35 95 35 129 0 14 -13 25 -29 25 -35 0
-5 9 -10 20 -10 25 0 25 7 0 48 -21 34 -72 62 -112 62 -13 -1 -38 -7 -55 -15z
m127 -200 c53 -53 23 -164 -47 -178 -68 -13 -123 33 -123 102 0 97 103 142
170 76z"/>
</g>
</svg>
